<?xml version="1.0" encoding="UTF-8"?>
<!DOCTYPE svg PUBLIC "-//W3C//DTD SVG 1.1//EN" "http://www.w3.org/Graphics/SVG/1.1/DTD/svg11.dtd">
<!-- Creator: CorelDRAW -->
<svg xmlns="http://www.w3.org/2000/svg" xml:space="preserve" width="8.5in" height="8.5in" style="shape-rendering:geometricPrecision; text-rendering:geometricPrecision; image-rendering:optimizeQuality; fill-rule:evenodd; clip-rule:evenodd"
viewBox="0 0 85 85">
 <defs>
  <style type="text/css">
   <![CDATA[
    .fil0 {fill:black}
    .fil1 {fill:white;fill-rule:nonzero}
   ]]>
  </style>
 </defs>
 <g id="Layer_x0020_1">
  <metadata id="CorelCorpID_0Corel-Layer"/>
  <rect class="fil0" width="85" height="85" rx="17.7178" ry="17.7178"/>
  <path class="fil1" d="M43.4373 51.8473l-3.01429 17.6903 -9.99004 2.53799 5.1998 -28.7549 -9.4163 -3.23378 10.7931 -4.39409 -19.3591 -3.55075 20.9104 -5.04406 -30.4346 -4.51768 32.3041 -5.84 20.8386 0.0451181c5.38256,0.0116142 9.48374,1.29681 12.3137,3.87906 2.83815,2.58972 4.25492,5.8787 4.25492,9.86299 0,3.02209 -0.841969,6.01406 -2.51087,8.94591 -1.23287,2.19512 -2.72134,4.01433 -4.45039,5.4126 -3.20248,2.55598 -6.23957,4.3602 -9.09622,5.3976 -2.87169,1.05248 -6.13429,1.56366 -9.80287,1.56366l-8.53992 0zm1.93953 -9.02106l8.31441 0c2.88673,0 5.71331,-0.646496 8.50984,-1.93953 2.07484,-1.00732 3.66858,-2.30035 4.78114,-3.87906 1.09756,-1.5937 1.63886,-3.14232 1.63886,-4.67591 0,-1.78917 -0.766811,-3.32276 -2.30039,-4.60071 -3.93024,-3.24343 -12.5669,-1.90945 -17.3354,-1.90945l-3.60843 17.0046z"/>
 </g>
</svg>
